<svg width="19" height="20" viewBox="0 0 19 20" fill="none" xmlns="http://www.w3.org/2000/svg">
<path d="M4.75 4V1C4.75 0.734784 4.85536 0.48043 5.04289 0.292893C5.23043 0.105357 5.48478 0 5.75 0H17.75C18.0152 0 18.2696 0.105357 18.4571 0.292893C18.6446 0.48043 18.75 0.734784 18.75 1V15C18.75 15.2652 18.6446 15.5196 18.4571 15.7071C18.2696 15.8946 18.0152 16 17.75 16H14.75V19C14.75 19.552 14.3 20 13.743 20H1.757C1.62513 20.0008 1.4944 19.9755 1.37232 19.9256C1.25025 19.8757 1.13923 19.8022 1.04566 19.7093C0.952084 19.6164 0.877793 19.5059 0.827054 19.3842C0.776316 19.2624 0.750129 19.1319 0.75 19L0.753 5C0.753 4.448 1.203 4 1.759 4H4.75ZM2.752 6L2.75 18H12.75V6H2.752ZM6.75 4H14.75V14H16.75V2H6.75V4ZM4.75 9H10.75V11H4.75V9ZM4.75 13H10.75V15H4.75V13Z" fill="#EEBF45"/>
</svg>
