<svg width="50" height="48" viewBox="0 0 50 48" fill="none" xmlns="http://www.w3.org/2000/svg">
<path d="M22.7341 44C22.7186 43.9167 22.6412 43.9226 22.5853 43.8988C21.9507 43.6166 21.6197 43.1297 21.6138 42.4344C21.6078 41.6403 21.5971 40.8462 21.6174 40.0522C21.64 39.1295 22.2019 38.5199 23.1246 38.5009C24.7247 38.4687 26.3272 38.4675 27.9284 38.5033C28.8583 38.5235 29.4345 39.1569 29.425 40.1045C29.4214 40.4772 29.5404 40.52 29.8619 40.4915C30.9108 40.3986 31.9561 40.3117 32.9847 40.0462C35.2646 39.4581 36.5408 37.977 36.9563 35.6971C37.0552 35.159 37.1028 34.6149 37.148 34.0708C37.1623 33.897 37.123 33.8411 36.9468 33.8458C36.5694 33.8565 36.192 33.8554 35.8146 33.847C35.2777 33.8363 35.0027 33.5756 34.9574 33.0422C34.9491 32.9386 34.9538 32.8339 34.9538 32.7303C34.9538 28.0693 34.9538 23.4083 34.955 18.7473C34.955 18.6045 34.9586 18.4604 34.98 18.3199C35.0419 17.9139 35.2634 17.6866 35.6706 17.6604C36.0849 17.633 36.5027 17.6401 36.9194 17.6449C37.1052 17.6473 37.1623 17.5842 37.1528 17.3937C36.9004 12.5398 34.6824 8.87056 30.3083 6.7502C25.7378 4.53579 21.315 5.11677 17.3231 8.23957C14.8277 10.1921 13.4097 12.8434 12.9597 15.9972C12.893 16.4639 12.9085 16.9317 12.8478 17.3961C12.8228 17.5901 12.899 17.6485 13.0823 17.6449C13.4335 17.6366 13.7859 17.6366 14.1372 17.6437C14.7622 17.6568 15.0241 17.9235 15.0455 18.5545C15.0479 18.6199 15.0455 18.6842 15.0455 18.7497C15.0455 23.4238 15.0455 28.0979 15.0443 32.772C15.0443 32.9267 15.036 33.0851 15.011 33.2375C14.9491 33.6006 14.7277 33.8446 14.3622 33.8482C13.1561 33.8589 11.9442 33.9792 10.7477 33.703C8.96304 33.291 7.77607 31.9636 7.57725 30.148C7.53201 29.7325 7.51058 29.3182 7.51177 28.9015C7.51415 26.7145 7.51296 24.5274 7.51296 22.3392C7.51296 21.607 7.58915 20.8844 7.86417 20.1986C8.42253 18.808 9.50117 18.058 10.9263 17.7663C11.2108 17.708 11.3275 17.6366 11.3429 17.3163C11.5965 12.1541 13.9752 8.25029 18.4481 5.69538C21.1649 4.14291 24.1365 3.68574 27.232 4.20481C31.0715 4.85009 34.0967 6.81568 36.3063 9.99682C37.8326 12.1946 38.6017 14.6685 38.6672 17.3496C38.6719 17.5663 38.6969 17.7032 38.9577 17.7473C41.1554 18.1211 42.4162 19.6474 42.4638 21.8237C42.521 24.4393 42.5138 27.0573 42.4638 29.673C42.4329 31.2874 41.7483 32.5827 40.2423 33.3422C39.8577 33.5363 39.4517 33.6851 39.0267 33.7375C38.7505 33.7708 38.6707 33.8708 38.6576 34.1494C38.6005 35.2816 38.4255 36.396 38.0338 37.4687C37.2421 39.6378 35.6563 40.9046 33.4716 41.4999C32.2715 41.8273 31.0429 41.9392 29.8095 42.0118C29.5416 42.0273 29.4345 42.0796 29.4428 42.3856C29.469 43.2428 28.9856 43.7428 28.2058 43.9988C26.3795 44 24.5568 44 22.7341 44ZM13.5181 25.7204C13.5181 23.625 13.5193 21.5284 13.5169 19.4331C13.5169 19.2783 13.5859 19.0854 13.2919 19.0974C12.668 19.1212 12.043 19.0771 11.4203 19.1557C10.0917 19.3247 9.21425 20.1796 9.05709 21.507C8.91899 22.6738 9.00947 23.8476 8.99876 25.0179C8.98447 26.4883 8.97138 27.961 9.00828 29.4301C9.05352 31.2159 9.96191 32.1565 11.7323 32.3076C12.1978 32.3469 12.6692 32.3136 13.1359 32.3446C13.4335 32.3636 13.5288 32.2862 13.5264 31.9683C13.5109 29.8861 13.5181 27.8026 13.5181 25.7204ZM36.4813 25.7275C36.4813 27.836 36.4837 29.9432 36.4766 32.0517C36.4754 32.2707 36.5004 32.3803 36.7635 32.3648C37.2171 32.3386 37.6742 32.3684 38.129 32.3481C39.8803 32.2719 40.8959 31.2624 40.9411 29.5146C40.9804 27.9931 40.978 26.4704 40.9887 24.9477C40.9959 23.9584 41.0244 22.969 40.9863 21.982C40.9292 20.476 40.203 19.5569 38.885 19.2593C38.2052 19.1057 37.5111 19.1878 36.8242 19.1521C36.5135 19.1354 36.4718 19.2462 36.473 19.5212C36.4861 21.5892 36.4813 23.6583 36.4813 25.7275ZM25.5033 42.4916C26.2045 42.4916 26.9069 42.4844 27.6082 42.4963C27.832 42.4999 27.9344 42.4559 27.9284 42.2011C27.9118 41.5522 27.9153 40.901 27.9272 40.2522C27.9308 40.0629 27.8749 40.0117 27.6868 40.0129C26.2438 40.02 24.8021 40.02 23.3591 40.0129C23.1674 40.0117 23.1198 40.0724 23.1234 40.2557C23.1329 40.9058 23.1412 41.5558 23.121 42.2047C23.1127 42.4654 23.2151 42.4999 23.4377 42.4963C24.1258 42.4844 24.8152 42.4916 25.5033 42.4916Z" fill="#56AEFF"/>
</svg>
