<svg width="25" height="24" viewBox="0 0 25 24" fill="none" xmlns="http://www.w3.org/2000/svg">
<g clip-path="url(#clip0_617_4151)">
<path d="M16.184 0H8.816C2.092 0 0.5 1.592 0.5 8.316V15.684C0.5 22.408 2.092 24 8.816 24H16.184C22.908 24 24.5 22.408 24.5 15.684V8.316C24.5 1.592 22.891 0 16.184 0ZM19.876 17.123H18.132C17.472 17.123 17.268 16.598 16.082 15.396C15.049 14.396 14.592 14.261 14.338 14.261C13.982 14.261 13.88 14.363 13.88 14.854V16.429C13.88 16.853 13.745 17.107 12.627 17.107C10.781 17.107 8.731 15.989 7.292 13.905C5.124 10.857 4.53 8.57 4.53 8.096C4.53 7.842 4.632 7.605 5.123 7.605H6.867C7.307 7.605 7.477 7.808 7.647 8.282C8.51 10.772 9.95 12.957 10.543 12.957C10.763 12.957 10.865 12.855 10.865 12.297V9.721C10.797 8.535 10.17 8.434 10.17 8.011C10.17 7.807 10.34 7.604 10.61 7.604H13.354C13.727 7.604 13.862 7.807 13.862 8.247V11.72C13.862 12.092 14.032 12.228 14.133 12.228C14.353 12.228 14.54 12.092 14.946 11.686C16.2 10.28 17.097 8.112 17.097 8.112C17.216 7.858 17.419 7.621 17.86 7.621H19.604C20.129 7.621 20.248 7.891 20.129 8.264C19.909 9.281 17.775 12.295 17.775 12.295C17.589 12.6 17.521 12.735 17.775 13.075C17.961 13.329 18.571 13.854 18.978 14.328C19.723 15.175 20.298 15.886 20.451 16.378C20.621 16.868 20.366 17.122 19.875 17.122L19.876 17.123Z" fill="#2285E0"/>
</g>
<defs>
<clipPath id="clip0_617_4151">
<rect width="24" height="24" fill="white" transform="translate(0.5)"/>
</clipPath>
</defs>
</svg>
