<svg width="24" height="25" viewBox="0 0 24 25" fill="none" xmlns="http://www.w3.org/2000/svg">
<g clip-path="url(#clip0_803_14492)">
<path d="M15.684 0.5H8.316C1.592 0.5 0 2.092 0 8.816V16.184C0 22.908 1.592 24.5 8.316 24.5H15.684C22.408 24.5 24 22.908 24 16.184V8.816C24 2.092 22.391 0.5 15.684 0.5ZM19.376 17.623H17.632C16.972 17.623 16.768 17.098 15.582 15.896C14.549 14.896 14.092 14.761 13.838 14.761C13.482 14.761 13.38 14.863 13.38 15.354V16.929C13.38 17.353 13.245 17.607 12.127 17.607C10.281 17.607 8.231 16.489 6.792 14.405C4.624 11.357 4.03 9.07 4.03 8.596C4.03 8.342 4.132 8.105 4.623 8.105H6.367C6.807 8.105 6.977 8.308 7.147 8.782C8.01 11.272 9.45 13.457 10.043 13.457C10.263 13.457 10.365 13.355 10.365 12.797V10.221C10.297 9.035 9.67 8.934 9.67 8.511C9.67 8.307 9.84 8.104 10.11 8.104H12.854C13.227 8.104 13.362 8.307 13.362 8.747V12.22C13.362 12.592 13.532 12.728 13.633 12.728C13.853 12.728 14.04 12.592 14.446 12.186C15.7 10.78 16.597 8.612 16.597 8.612C16.716 8.358 16.919 8.121 17.36 8.121H19.104C19.629 8.121 19.748 8.391 19.629 8.764C19.409 9.781 17.275 12.795 17.275 12.795C17.089 13.1 17.021 13.235 17.275 13.575C17.461 13.829 18.071 14.354 18.478 14.828C19.223 15.675 19.798 16.386 19.951 16.878C20.121 17.368 19.866 17.622 19.375 17.622L19.376 17.623Z" fill="#2285E0"/>
</g>
<defs>
<clipPath id="clip0_803_14492">
<rect width="24" height="24" fill="white" transform="translate(0 0.5)"/>
</clipPath>
</defs>
</svg>
