<svg width="81" height="80" viewBox="0 0 81 80" fill="none" xmlns="http://www.w3.org/2000/svg">
<path d="M24.8544 46.3692H24.8795C25.7069 46.3611 26.4974 46.026 27.0784 45.4369C27.6595 44.8478 27.9838 44.0528 27.9805 43.2254C27.9773 42.398 27.6468 41.6055 27.0611 41.021C26.4755 40.4366 25.6824 40.1076 24.855 40.106H24.8295C24.0021 40.1141 23.2116 40.4493 22.6306 41.0384C22.0495 41.6275 21.7253 42.4225 21.7285 43.2499C21.7318 44.0774 22.0624 44.8698 22.6481 45.4543C23.2338 46.0388 24.0269 46.3677 24.8544 46.3692ZM24.1825 42.5753C24.2693 42.4868 24.3728 42.4163 24.487 42.3681C24.6012 42.3198 24.7238 42.2946 24.8478 42.2941H24.8556C25.104 42.2962 25.3416 42.3961 25.5168 42.5722C25.6921 42.7482 25.7909 42.9863 25.7918 43.2347C25.7928 43.4831 25.6958 43.7219 25.5219 43.8993C25.348 44.0766 25.1112 44.1784 24.8628 44.1824H24.8553C24.6692 44.1823 24.4873 44.1273 24.3324 44.0242C24.1775 43.9211 24.0565 43.7745 23.9847 43.6029C23.9128 43.4313 23.8932 43.2423 23.9284 43.0595C23.9636 42.8768 24.052 42.7086 24.1825 42.576V42.5753Z" fill="#DBE7EC"/>
<path d="M56.7666 46.1148H56.7924C57.6198 46.1068 58.4103 45.7716 58.9913 45.1826C59.5723 44.5936 59.8967 43.7986 59.8935 42.9712C59.8903 42.1439 59.5599 41.3514 58.9743 40.7669C58.3888 40.1823 57.5957 39.8533 56.7684 39.8516H56.7426C55.912 39.8548 55.1168 40.1877 54.5318 40.7773C53.9467 41.3668 53.6199 42.1646 53.6231 42.9952C53.6263 43.8257 53.9593 44.621 54.5488 45.206C55.1383 45.791 55.9361 46.1179 56.7666 46.1147V46.1148ZM56.0948 42.3209C56.1816 42.2324 56.2851 42.1619 56.3993 42.1137C56.5135 42.0654 56.6361 42.0402 56.7601 42.0397H56.7679C57.0169 42.0397 57.2559 42.1382 57.4327 42.3136C57.6094 42.489 57.7097 42.7272 57.7116 42.9762C57.7136 43.2266 57.6161 43.4675 57.4405 43.646C57.2649 43.8244 57.0256 43.9258 56.7752 43.9278H56.7674C56.5814 43.9277 56.3995 43.8727 56.2446 43.7696C56.0898 43.6665 55.9688 43.5199 55.8969 43.3483C55.8251 43.1767 55.8055 42.9876 55.8407 42.805C55.8759 42.6223 55.9643 42.454 56.0948 42.3214V42.3209Z" fill="#DBE7EC"/>
<path d="M35.0749 48.7327H35.0837L46.627 48.6406C46.917 48.6395 47.1948 48.5232 47.3991 48.3173C47.6035 48.1114 47.7176 47.8328 47.7165 47.5427C47.7154 47.2526 47.5991 46.9748 47.3932 46.7705C47.1873 46.5662 46.9086 46.452 46.6185 46.4531H46.6093L35.066 46.5452C34.7759 46.5463 34.4982 46.6626 34.2939 46.8686C34.0896 47.0745 33.9754 47.3531 33.9766 47.6432C33.9777 47.9333 34.094 48.2111 34.3 48.4154C34.5059 48.6197 34.7845 48.7338 35.0746 48.7327H35.0749Z" fill="#DBE7EC"/>
<path d="M60.1535 65.584C54.5129 70.4264 47.4262 73.2059 40.7104 73.21H40.6948C36.3198 73.21 31.7446 72.032 27.4637 69.8037C23.012 67.4828 19.1501 64.1745 16.1734 60.1319C16.0885 60.0159 15.9816 59.9179 15.8587 59.8433C15.7359 59.7687 15.5996 59.7191 15.4576 59.6972C15.3156 59.6753 15.1706 59.6816 15.0311 59.7158C14.8915 59.7499 14.76 59.8112 14.6441 59.8962C14.5283 59.9812 14.4303 60.0882 14.3558 60.211C14.2813 60.3339 14.2317 60.4703 14.2099 60.6123C14.1881 60.7543 14.1945 60.8992 14.2288 61.0388C14.263 61.1784 14.3244 61.3098 14.4095 61.4256C17.5849 65.7386 21.7046 69.2683 26.4535 71.7447C31.0454 74.1353 35.9692 75.3987 40.6948 75.3987H40.7104C47.9407 75.3944 55.5464 72.4225 61.5771 67.245C68.1791 61.592 72.3887 53.6434 73.3551 45.0058C73.3877 44.7175 73.3045 44.4281 73.1237 44.2012C72.9429 43.9744 72.6794 43.8286 72.3911 43.796C72.1029 43.7634 71.8135 43.8467 71.5866 44.0274C71.3597 44.2082 71.214 44.4717 71.1814 44.76C70.2765 52.8478 66.335 60.2905 60.1535 65.584Z" fill="#DBE7EC"/>
<path d="M9.1077 36.2055C9.1492 36.2102 9.19094 36.2125 9.2327 36.2125C9.50128 36.2122 9.76035 36.113 9.96053 35.934C10.1607 35.7549 10.288 35.5085 10.3182 35.2416C11.2229 27.1532 15.1645 19.71 21.3464 14.4163C26.9871 9.57393 34.0738 6.7944 40.7896 6.79033H40.8052C45.1802 6.79033 49.7554 7.9683 54.0361 10.1966C58.4879 12.5175 62.3498 15.8258 65.3266 19.8685C65.4115 19.9844 65.5184 20.0824 65.6413 20.157C65.7641 20.2316 65.9004 20.2813 66.0424 20.3031C66.1844 20.325 66.3293 20.3187 66.4689 20.2846C66.6085 20.2504 66.74 20.1891 66.8558 20.1041C66.9717 20.0191 67.0697 19.9121 67.1442 19.7893C67.2187 19.6664 67.2683 19.5301 67.2901 19.388C67.3119 19.246 67.3055 19.1011 67.2712 18.9615C67.237 18.822 67.1756 18.6905 67.0905 18.5747C63.915 14.2618 59.7954 10.7321 55.0464 8.25565C50.4494 5.86221 45.5244 4.59565 40.7889 4.60158C33.558 4.60721 25.9524 7.57971 19.9221 12.7566C13.32 18.4095 9.1102 26.3581 8.14364 34.9958C8.12751 35.1385 8.13965 35.283 8.17936 35.4211C8.21908 35.5591 8.2856 35.688 8.37512 35.8003C8.46465 35.9127 8.57542 36.0063 8.70111 36.0758C8.82681 36.1453 8.96497 36.1894 9.1077 36.2055Z" fill="#DBE7EC"/>
<path d="M52.8026 35.4935C52.8049 35.7821 52.9212 36.058 53.126 36.2613C53.3309 36.4645 53.6078 36.5785 53.8963 36.5785H53.9051C54.0488 36.5774 54.1908 36.548 54.3231 36.4919C54.4554 36.4359 54.5753 36.3544 54.6761 36.252C54.7769 36.1496 54.8565 36.0283 54.9104 35.8952C54.9643 35.762 54.9914 35.6195 54.9903 35.4758C54.9793 34.1047 54.4241 32.7941 53.4468 31.8323C52.4695 30.8705 51.1502 30.3364 49.7791 30.3473C48.4079 30.3583 47.0973 30.9135 46.1355 31.8908C45.1738 32.8681 44.6396 34.1874 44.6506 35.5585C44.6529 35.8471 44.7691 36.123 44.974 36.3263C45.1789 36.5295 45.4557 36.6435 45.7443 36.6435H45.7532C45.8969 36.6424 46.0389 36.6129 46.1712 36.5569C46.3034 36.5009 46.4234 36.4193 46.5241 36.3169C46.6249 36.2145 46.7045 36.0933 46.7584 35.9601C46.8123 35.827 46.8394 35.6845 46.8382 35.5408C46.8372 34.7532 47.1478 33.9972 47.7021 33.4377C48.2565 32.8782 49.0097 32.5608 49.7973 32.5546C50.5849 32.5484 51.3429 32.854 51.906 33.4047C52.4691 33.9554 52.7916 34.7064 52.8029 35.494L52.8026 35.4935Z" fill="#DBE7EC"/>
<path d="M35.6055 44.3925H35.6146C35.9046 44.3901 36.1819 44.2726 36.3853 44.0659C36.5888 43.8591 36.7017 43.58 36.6994 43.29L36.6838 41.4121C36.6815 41.1236 36.5652 40.8476 36.3604 40.6444C36.1555 40.4412 35.8786 40.3271 35.59 40.3271H35.581C35.2909 40.3295 35.0137 40.447 34.8102 40.6537C34.6068 40.8605 34.4938 41.1396 34.4961 41.4296L34.5118 43.3075C34.5141 43.596 34.6303 43.872 34.8352 44.0752C35.0401 44.2784 35.3169 44.3925 35.6055 44.3925Z" fill="#DBE7EC"/>
<path d="M32.1264 44.4209H32.1351C32.2787 44.4198 32.4207 44.3904 32.553 44.3343C32.6853 44.2783 32.8052 44.1968 32.906 44.0944C33.0067 43.992 33.0863 43.8708 33.1402 43.7377C33.1941 43.6045 33.2213 43.4621 33.2201 43.3184L33.2053 41.4406C33.203 41.152 33.0868 40.876 32.8819 40.6728C32.677 40.4695 32.4001 40.3555 32.1115 40.3555H32.1026C31.959 40.3566 31.817 40.386 31.6847 40.4421C31.5524 40.4981 31.4325 40.5796 31.3318 40.682C31.231 40.7844 31.1514 40.9056 31.0975 41.0387C31.0436 41.1719 31.0165 41.3143 31.0176 41.458L31.0325 43.3359C31.0348 43.6245 31.151 43.9005 31.3559 44.1037C31.5608 44.307 31.8378 44.421 32.1264 44.4209Z" fill="#DBE7EC"/>
<path d="M49.5041 40.2188H49.4952C49.3515 40.2199 49.2095 40.2493 49.0773 40.3053C48.945 40.3614 48.8251 40.4429 48.7243 40.5453C48.6236 40.6477 48.544 40.7689 48.4901 40.902C48.4362 41.0352 48.409 41.1776 48.4102 41.3212L48.4258 43.1991C48.4281 43.4876 48.5444 43.7636 48.7492 43.9668C48.9541 44.17 49.231 44.2841 49.5196 44.284H49.5285C49.8185 44.2817 50.0958 44.1643 50.2992 43.9576C50.5027 43.7509 50.6157 43.4718 50.6135 43.1817L50.5978 41.3039C50.5956 41.0153 50.4793 40.7393 50.2745 40.5361C50.0696 40.3328 49.7927 40.2187 49.5041 40.2188Z" fill="#DBE7EC"/>
<path d="M39.084 44.3662H39.0929C39.2366 44.3651 39.3786 44.3357 39.5108 44.2797C39.6431 44.2236 39.763 44.1421 39.8638 44.0397C39.9645 43.9373 40.0441 43.8161 40.098 43.683C40.1519 43.5498 40.1791 43.4074 40.1779 43.2638L40.1623 41.3859C40.16 41.0973 40.0438 40.8214 39.8389 40.6181C39.634 40.4148 39.3571 40.3008 39.0685 40.3008H39.0598C38.9162 40.3019 38.7741 40.3313 38.6419 40.3873C38.5096 40.4433 38.3896 40.5249 38.2889 40.6273C38.1881 40.7296 38.1085 40.8509 38.0546 40.984C38.0006 41.1172 37.9735 41.2596 37.9746 41.4033L37.9903 43.2812C37.9926 43.5698 38.1088 43.8458 38.3137 44.049C38.5186 44.2522 38.7954 44.3663 39.084 44.3662Z" fill="#DBE7EC"/>
<path d="M42.5614 44.3388H42.5702C42.7138 44.3376 42.8558 44.3082 42.9881 44.2522C43.1204 44.1962 43.2403 44.1147 43.3411 44.0123C43.4419 43.91 43.5215 43.7888 43.5754 43.6556C43.6293 43.5225 43.6565 43.3801 43.6554 43.2364L43.6397 41.3586C43.6375 41.07 43.5212 40.794 43.3164 40.5907C43.1115 40.3875 42.8346 40.2734 42.546 40.2734H42.5371C42.2471 40.276 41.97 40.3937 41.7668 40.6005C41.5635 40.8073 41.4507 41.0864 41.4532 41.3764L41.4688 43.2542C41.4712 43.5425 41.5874 43.8182 41.792 44.0213C41.9966 44.2244 42.2731 44.3385 42.5614 44.3388Z" fill="#DBE7EC"/>
<path d="M46.0147 40.2461C45.8711 40.2473 45.7291 40.2767 45.5968 40.3327C45.4646 40.3888 45.3446 40.4703 45.2439 40.5727C45.1431 40.675 45.0635 40.7963 45.0096 40.9294C44.9557 41.0625 44.9286 41.205 44.9297 41.3486L44.9446 43.2266C44.9469 43.5152 45.0631 43.7911 45.268 43.9944C45.4729 44.1976 45.7497 44.3116 46.0383 44.3116H46.0471C46.1907 44.3105 46.3327 44.281 46.465 44.225C46.5972 44.169 46.7172 44.0875 46.8179 43.9851C46.9187 43.8827 46.9983 43.7615 47.0522 43.6283C47.1061 43.4952 47.1332 43.3527 47.1321 43.2091L47.1172 41.3313C47.1161 41.1876 47.0867 41.0456 47.0307 40.9133C46.9746 40.7811 46.8931 40.6611 46.7907 40.5603C46.6884 40.4596 46.5671 40.38 46.434 40.326C46.3008 40.2721 46.1584 40.245 46.0147 40.2461Z" fill="#DBE7EC"/>
<path d="M17.3092 36.377H17.3193L18.8398 36.363C18.0578 37.3222 17.6421 38.5282 17.667 39.7656C17.6673 39.8116 17.6706 39.8574 17.6767 39.903L18.8954 48.9509C18.9179 49.6035 19.1484 50.2319 19.5531 50.7443C19.9579 51.2567 20.5158 51.6263 21.1454 51.7994L21.1662 54.4048C21.1713 54.9525 21.3922 55.476 21.781 55.8617C22.1697 56.2474 22.695 56.4641 23.2426 56.4648H23.2596L26.244 56.4411C26.7948 56.4364 27.3212 56.2133 27.7076 55.8207C28.094 55.4281 28.3087 54.8981 28.3045 54.3473L28.2846 51.8597L53.4737 51.6587L53.4934 54.1464C53.4978 54.6943 53.7185 55.2182 54.1074 55.6041C54.4963 55.99 55.0219 56.2066 55.5698 56.2069H55.5868L58.5722 56.183C59.123 56.1785 59.6495 55.9554 60.0359 55.5628C60.4223 55.1701 60.6369 54.6401 60.6325 54.0892L60.6115 51.4717C61.2256 51.2796 61.7637 50.8995 62.1502 50.3851C62.5366 49.8707 62.7518 49.2479 62.7653 48.6047L63.8903 39.5403C63.8962 39.4928 63.8989 39.4449 63.8986 39.397C63.8962 38.1547 63.4469 36.9547 62.6329 36.0162L64.1943 36.0033C64.3424 36.0021 64.4886 35.9708 64.6242 35.9114C64.7598 35.852 64.882 35.7656 64.9832 35.6576C65.0845 35.5496 65.1627 35.4222 65.2133 35.283C65.2638 35.1439 65.2856 34.9959 65.2773 34.8481C65.2281 34.2134 65.099 33.5874 64.8929 32.985C64.412 31.5787 62.9472 30.6845 61.1628 30.6936C60.2675 30.7008 58.72 30.7078 57.8476 30.7116L56.3389 27.9856C55.1623 25.9152 53.4442 23.543 50.5664 23.543H50.5245L30.9512 23.6992C28.5961 23.718 26.5331 25.3328 25.1387 28.247L23.615 30.9983C22.74 31.0036 21.1664 31.0139 20.2637 31.0205C18.4786 31.0348 17.0293 31.958 16.5704 33.3709C16.374 33.9765 16.2548 34.6044 16.2157 35.2398C16.2098 35.3871 16.2336 35.534 16.2859 35.6718C16.3381 35.8096 16.4176 35.9354 16.5197 36.0416C16.6218 36.1479 16.7443 36.2325 16.8798 36.2903C17.0154 36.348 17.1612 36.3778 17.3086 36.3778L17.3092 36.377ZM23.3523 54.2766L23.3334 51.8994L26.0975 51.8773L26.1164 54.2545L23.3523 54.2766ZM55.6804 54.0187L55.6615 51.6417L58.4254 51.6197L58.4443 53.9967L55.6804 54.0187ZM61.179 32.8811C61.9782 32.8706 62.6564 33.2084 62.8222 33.6936C62.8375 33.7385 62.852 33.783 62.8657 33.827L59.5845 33.8544L59.0532 32.8939C59.8004 32.89 60.6176 32.8856 61.179 32.8811ZM27.0696 29.2769C27.0807 29.257 27.0911 29.2369 27.1009 29.2164C27.6885 27.9794 28.9726 25.9019 30.9693 25.8859L50.5426 25.7297H50.5657C51.9507 25.7297 53.1103 26.7297 54.4317 29.0544L57.4415 34.4987L24.0293 34.7652L27.0696 29.2769ZM59.265 36.6719C59.2704 36.6719 59.2757 36.6719 59.2806 36.6719H59.3081C59.6264 36.673 59.9406 36.743 60.2292 36.8772C60.5178 37.0113 60.774 37.2064 60.98 37.4491C61.4348 37.9786 61.6924 38.6493 61.709 39.3472L60.5859 48.3984C60.58 48.446 60.5771 48.4939 60.5775 48.5419C60.5778 48.7728 60.4872 48.9946 60.3252 49.1592C60.1632 49.3238 59.9429 49.4179 59.712 49.4212L21.9606 49.7222H21.9536C21.7238 49.7207 21.5039 49.6292 21.3408 49.4674C21.1777 49.3056 21.0846 49.0864 21.0812 48.8567C21.0808 48.8108 21.0776 48.7649 21.0715 48.7194L19.8543 39.683C19.87 38.0508 20.9525 37.0456 22.0512 36.9595C22.089 36.9639 22.1269 36.9664 22.165 36.9669H22.1736L59.265 36.6719ZM18.6517 34.0452C18.8098 33.5583 19.4798 33.2136 20.2817 33.2072C20.8392 33.2028 21.6529 33.1973 22.3998 33.1927L21.8711 34.1473L18.6109 34.1775C18.6237 34.1339 18.6373 34.0897 18.6517 34.0452Z" fill="#DBE7EC"/>
<path d="M73.4086 35.0994C73.3092 34.9467 73.1733 34.8212 73.0132 34.7344C72.8531 34.6475 72.6738 34.602 72.4917 34.6021C72.3094 34.6022 72.13 34.6478 71.9698 34.7349C71.8097 34.822 71.6738 34.9477 71.5746 35.1006L65.8246 43.9647C65.7175 44.1298 65.6569 44.3207 65.6493 44.5174C65.6416 44.7141 65.6871 44.9091 65.7811 45.0821C65.875 45.255 66.0139 45.3994 66.183 45.5C66.3522 45.6006 66.5453 45.6538 66.7421 45.6538L78.254 45.6469C78.4509 45.6468 78.6441 45.5936 78.8133 45.4928C78.9824 45.3921 79.1213 45.2476 79.2151 45.0745C79.309 44.9014 79.3543 44.7062 79.3465 44.5095C79.3386 44.3127 79.2778 44.1218 79.1704 43.9567L73.4086 35.0994ZM68.755 43.465L72.4928 37.703L76.2375 43.4599L68.755 43.465Z" fill="#DBE7EC"/>
<path d="M9.00801 45.3994C9.1903 45.3993 9.36968 45.3536 9.52984 45.2665C9.68999 45.1795 9.82584 45.0537 9.92504 44.9008L15.675 36.0367C15.7822 35.8716 15.8427 35.6807 15.8504 35.484C15.8581 35.2874 15.8125 35.0923 15.7186 34.9193C15.6247 34.7464 15.4858 34.602 15.3166 34.5014C15.1475 34.4008 14.9543 34.3477 14.7575 34.3477L3.24566 34.3545C3.04878 34.3546 2.85556 34.4078 2.68641 34.5086C2.51725 34.6093 2.37843 34.7539 2.28458 34.9269C2.19074 35.1 2.14535 35.2952 2.15322 35.492C2.16108 35.6887 2.2219 35.8796 2.32926 36.0447L8.09051 44.902C8.18989 45.0548 8.32588 45.1803 8.48611 45.2672C8.64635 45.3541 8.82575 45.3995 9.00801 45.3994ZM12.7447 36.5364L9.00691 42.2984L5.26223 36.5409L12.7447 36.5364Z" fill="#DBE7EC"/>
</svg>
