<svg width="81" height="80" viewBox="0 0 81 80" fill="none" xmlns="http://www.w3.org/2000/svg">
<path d="M46.3533 33.6919C46.4546 33.5505 46.5206 33.387 46.5461 33.215C46.5715 33.043 46.5556 32.8674 46.4996 32.7028L45.6949 30.3364C45.1144 28.6297 43.2477 27.293 41.4449 27.293H26.0788C24.2705 27.293 22.4144 28.6394 21.8529 30.3584L21.0833 32.7155C21.0297 32.8797 21.0157 33.0542 21.0426 33.2249C21.0694 33.3955 21.1363 33.5574 21.2377 33.6972C21.3391 33.837 21.4722 33.9509 21.6261 34.0293C21.78 34.1078 21.9503 34.1487 22.123 34.1487H45.4641C45.638 34.1487 45.8093 34.1073 45.964 34.0278C46.1186 33.9484 46.2521 33.8332 46.3533 33.6919ZM23.6308 31.9612L23.9324 31.0375C24.198 30.2227 25.2216 29.4805 26.0788 29.4805H41.445C42.3075 29.4805 43.3461 30.2242 43.6238 31.0408L43.9363 31.9612H23.6308Z" fill="#DBE7EC"/>
<path d="M24.6582 36.0537C24.3681 36.0537 24.0899 36.1689 23.8848 36.3741C23.6797 36.5792 23.5645 36.8574 23.5645 37.1475C23.5645 37.4375 23.6797 37.7157 23.8848 37.9209C24.0899 38.126 24.3681 38.2412 24.6582 38.2412H42.8048C43.0949 38.2412 43.3731 38.126 43.5782 37.9209C43.7833 37.7157 43.8985 37.4375 43.8985 37.1475C43.8985 36.8574 43.7833 36.5792 43.5782 36.3741C43.3731 36.1689 43.0949 36.0537 42.8048 36.0537H24.6582Z" fill="#DBE7EC"/>
<path d="M57.8497 38.8364H52.6328C52.3427 38.8364 52.0645 38.9517 51.8594 39.1568C51.6543 39.3619 51.5391 39.6401 51.5391 39.9302V45.1467C51.5391 45.4368 51.6543 45.715 51.8594 45.9201C52.0645 46.1253 52.3427 46.2405 52.6328 46.2405H53.7922C54.0823 46.2405 54.3605 46.1253 54.5656 45.9201C54.7707 45.715 54.8859 45.4368 54.8859 45.1467C54.8859 44.8567 54.7707 44.5785 54.5656 44.3733C54.3605 44.1682 54.0823 44.053 53.7922 44.053H53.7266V41.0239H56.8128C56.8953 41.2701 57.0628 41.4789 57.2851 41.613C57.5075 41.747 57.7703 41.7976 58.0265 41.7557C58.2828 41.7137 58.5157 41.582 58.6837 41.3841C58.8518 41.1861 58.9439 40.9348 58.9436 40.6752V39.9302C58.9436 39.7865 58.9153 39.6443 58.8603 39.5116C58.8054 39.3789 58.7248 39.2583 58.6232 39.1567C58.5216 39.0552 58.401 38.9746 58.2683 38.9196C58.1356 38.8647 57.9933 38.8364 57.8497 38.8364Z" fill="#DBE7EC"/>
<path d="M51.5391 55.2909C51.5391 55.581 51.6543 55.8592 51.8594 56.0643C52.0645 56.2694 52.3427 56.3847 52.6328 56.3847H57.8497C58.1398 56.3847 58.418 56.2694 58.6231 56.0643C58.8282 55.8592 58.9434 55.581 58.9434 55.2909V50.0742C58.9434 49.7841 58.8282 49.5059 58.6231 49.3008C58.418 49.0957 58.1398 48.9805 57.8497 48.9805H52.6328C52.3427 48.9805 52.0645 49.0957 51.8594 49.3008C51.6543 49.5059 51.5391 49.7841 51.5391 50.0742V55.2909ZM53.7266 51.168H56.7559V54.1972H53.7266V51.168Z" fill="#DBE7EC"/>
<path d="M51.5391 65.4353C51.5391 65.7254 51.6543 66.0036 51.8594 66.2087C52.0645 66.4138 52.3427 66.5291 52.6328 66.5291H53.7923C54.0824 66.5291 54.3606 66.4138 54.5657 66.2087C54.7709 66.0036 54.8861 65.7254 54.8861 65.4353C54.8861 65.1452 54.7709 64.867 54.5657 64.6619C54.3606 64.4568 54.0824 64.3416 53.7923 64.3416H53.7266V61.3125H56.7563C56.7598 61.6026 56.8784 61.8794 57.0861 62.082C57.2937 62.2846 57.5733 62.3964 57.8634 62.3929C58.1535 62.3893 58.4302 62.2707 58.6329 62.0631C58.8355 61.8555 58.9473 61.5759 58.9438 61.2858V60.2187C58.9438 59.9287 58.8285 59.6505 58.6234 59.4453C58.4183 59.2402 58.1401 59.125 57.85 59.125H52.6328C52.3427 59.125 52.0645 59.2402 51.8594 59.4453C51.6543 59.6505 51.5391 59.9287 51.5391 60.2187V65.4353Z" fill="#DBE7EC"/>
<path d="M61.956 40.1876C61.8544 40.086 61.7339 40.0054 61.6011 39.9505C61.4684 39.8955 61.3262 39.8672 61.1826 39.8672C61.0389 39.8672 60.8967 39.8955 60.764 39.9505C60.6313 40.0054 60.5107 40.086 60.4091 40.1876L57.1566 43.4412L56.1602 42.4448C56.0586 42.3432 55.9381 42.2626 55.8054 42.2077C55.6727 42.1527 55.5304 42.1244 55.3868 42.1244C55.2431 42.1244 55.1009 42.1527 54.9682 42.2077C54.8355 42.2626 54.7149 42.3432 54.6133 42.4448C54.5118 42.5463 54.4312 42.6669 54.3762 42.7996C54.3213 42.9323 54.293 43.0746 54.293 43.2182C54.293 43.3618 54.3213 43.5041 54.3762 43.6368C54.4312 43.7695 54.5118 43.8901 54.6133 43.9916L56.383 45.7613C56.4846 45.8629 56.6052 45.9435 56.7379 45.9985C56.8706 46.0534 57.0128 46.0817 57.1565 46.0817C57.3001 46.0817 57.4423 46.0534 57.575 45.9985C57.7078 45.9435 57.8283 45.8629 57.9299 45.7613L61.9565 41.7346C62.058 41.633 62.1386 41.5124 62.1935 41.3797C62.2485 41.2469 62.2767 41.1047 62.2767 40.961C62.2767 40.8173 62.2483 40.6751 62.1933 40.5424C62.1383 40.4097 62.0576 40.2891 61.956 40.1876Z" fill="#DBE7EC"/>
<path d="M60.4091 60.6329L57.1566 63.8861L56.1602 62.8897C56.0586 62.7882 55.9381 62.7076 55.8054 62.6526C55.6726 62.5977 55.5304 62.5694 55.3868 62.5694C55.2431 62.5694 55.1009 62.5977 54.9682 62.6526C54.8355 62.7076 54.7149 62.7882 54.6133 62.8897C54.5118 62.9913 54.4312 63.1119 54.3762 63.2446C54.3213 63.3773 54.293 63.5195 54.293 63.6632C54.293 63.8068 54.3213 63.9491 54.3762 64.0818C54.4312 64.2145 54.5118 64.335 54.6133 64.4366L56.383 66.2063C56.4846 66.3079 56.6052 66.3885 56.7379 66.4434C56.8706 66.4984 57.0128 66.5267 57.1565 66.5267C57.3001 66.5267 57.4423 66.4984 57.575 66.4434C57.7077 66.3885 57.8283 66.3079 57.9299 66.2063L61.9566 62.1797C62.1617 61.9746 62.277 61.6964 62.277 61.4063C62.277 61.1162 62.1617 60.838 61.9566 60.6329C61.7515 60.4277 61.4733 60.3125 61.1832 60.3125C60.8931 60.3125 60.6149 60.4277 60.4097 60.6329H60.4091Z" fill="#DBE7EC"/>
<path d="M48.9556 22.7742C48.9556 23.0643 49.0709 23.3425 49.276 23.5476C49.4811 23.7527 49.7593 23.8679 50.0494 23.8679C50.3395 23.8679 50.6177 23.7527 50.8228 23.5476C51.0279 23.3425 51.1431 23.0643 51.1431 22.7742C51.1431 21.1473 50.4969 19.5871 49.3465 18.4368C48.1961 17.2864 46.6359 16.6401 45.0091 16.6401C43.3822 16.6401 41.822 17.2864 40.6716 18.4368C39.5213 19.5871 38.875 21.1473 38.875 22.7742C38.875 23.0643 38.9902 23.3425 39.1954 23.5476C39.4005 23.7527 39.6787 23.8679 39.9688 23.8679C40.2588 23.8679 40.537 23.7527 40.7421 23.5476C40.9473 23.3425 41.0625 23.0643 41.0625 22.7742C41.0625 21.7275 41.4783 20.7237 42.2184 19.9836C42.9585 19.2434 43.9624 18.8276 45.0091 18.8276C46.0558 18.8276 47.0596 19.2434 47.7997 19.9836C48.5398 20.7237 48.9556 21.7275 48.9556 22.7742Z" fill="#DBE7EC"/>
<path d="M14.063 28.4604C13.3482 28.4604 12.6496 28.6724 12.0553 29.0695C11.461 29.4666 10.9978 30.0309 10.7243 30.6913C10.4508 31.3516 10.3792 32.0782 10.5187 32.7792C10.6581 33.4802 11.0023 34.1241 11.5077 34.6295C12.0131 35.1349 12.657 35.4791 13.358 35.6185C14.059 35.7579 14.7856 35.6864 15.4459 35.4129C16.1062 35.1393 16.6706 34.6762 17.0677 34.0819C17.4648 33.4876 17.6767 32.7889 17.6767 32.0742C17.6757 31.1161 17.2946 30.1975 16.6171 29.52C15.9396 28.8425 15.0211 28.4615 14.063 28.4604ZM14.063 33.5003C13.7809 33.5003 13.5051 33.4166 13.2706 33.2599C13.036 33.1032 12.8532 32.8804 12.7453 32.6198C12.6373 32.3592 12.6091 32.0724 12.6641 31.7957C12.7192 31.5191 12.855 31.2649 13.0545 31.0655C13.254 30.866 13.5081 30.7302 13.7848 30.6752C14.0615 30.6202 14.3483 30.6484 14.6089 30.7564C14.8695 30.8644 15.0922 31.0472 15.2489 31.2818C15.4056 31.5163 15.4893 31.7921 15.4892 32.0742C15.4888 32.4523 15.3383 32.8148 15.071 33.0821C14.8036 33.3494 14.4411 33.4998 14.063 33.5001V33.5003Z" fill="#DBE7EC"/>
<path d="M63.7109 42.5386C63.7109 42.8287 63.8262 43.1069 64.0313 43.312C64.2364 43.5171 64.5146 43.6323 64.8047 43.6323H71.7603C72.0504 43.6323 72.3286 43.5171 72.5337 43.312C72.7388 43.1069 72.8541 42.8287 72.8541 42.5386C72.8541 42.2485 72.7388 41.9703 72.5337 41.7652C72.3286 41.5601 72.0504 41.4448 71.7603 41.4448H64.8047C64.5146 41.4448 64.2364 41.5601 64.0313 41.7652C63.8262 41.9703 63.7109 42.2485 63.7109 42.5386Z" fill="#DBE7EC"/>
<path d="M71.7603 51.5898H64.8047C64.5146 51.5898 64.2364 51.7051 64.0313 51.9102C63.8262 52.1153 63.7109 52.3935 63.7109 52.6836C63.7109 52.9737 63.8262 53.2519 64.0313 53.457C64.2364 53.6621 64.5146 53.7773 64.8047 53.7773H71.7603C72.0504 53.7773 72.3286 53.6621 72.5337 53.457C72.7388 53.2519 72.8541 52.9737 72.8541 52.6836C72.8541 52.3935 72.7388 52.1153 72.5337 51.9102C72.3286 51.7051 72.0504 51.5898 71.7603 51.5898Z" fill="#DBE7EC"/>
<path d="M71.7603 61.7305H64.8047C64.5146 61.7305 64.2364 61.8457 64.0313 62.0508C63.8262 62.2559 63.7109 62.5341 63.7109 62.8242C63.7109 63.1143 63.8262 63.3925 64.0313 63.5976C64.2364 63.8027 64.5146 63.918 64.8047 63.918H71.7603C72.0504 63.918 72.3286 63.8027 72.5337 63.5976C72.7388 63.3925 72.8541 63.1143 72.8541 62.8242C72.8541 62.5341 72.7388 62.2559 72.5337 62.0508C72.3286 61.8457 72.0504 61.7305 71.7603 61.7305Z" fill="#DBE7EC"/>
<path d="M59.0799 17.1778C57.9182 17.1778 55.8678 17.1706 54.8264 17.1667L52.9175 13.648C51.5113 11.1258 49.4528 8.23047 45.9977 8.23047H21.7945C18.9846 8.23047 16.4989 10.1575 14.7924 13.6581L12.8024 17.1838C11.7596 17.1817 9.67736 17.1778 8.50768 17.1778C6.41393 17.1778 4.70861 18.2348 4.16392 19.8708C3.92389 20.5957 3.77478 21.3476 3.72002 22.1092C3.71289 22.2571 3.73585 22.4048 3.7875 22.5435C3.83915 22.6822 3.91841 22.809 4.02049 22.9162C4.12258 23.0234 4.24535 23.1087 4.38139 23.1671C4.51742 23.2254 4.66388 23.2555 4.81189 23.2556H4.8133L7.29564 23.2523C6.17064 24.3228 5.46861 25.9086 5.46861 27.7077C5.46858 27.7536 5.47145 27.7995 5.47721 27.845L6.89674 39.0581C6.91476 39.8457 7.19561 40.6046 7.69462 41.2142C8.19363 41.8238 8.88214 42.249 9.65064 42.4222V45.8425C9.65143 46.4548 9.89498 47.0417 10.3279 47.4747C10.7608 47.9076 11.3478 48.1512 11.96 48.152H15.6516C16.2638 48.1512 16.8508 47.9076 17.2837 47.4747C17.7166 47.0417 17.9602 46.4548 17.961 45.8425V42.5081H47.705C47.9951 42.5081 48.2733 42.3929 48.4784 42.1878C48.6835 41.9827 48.7988 41.7045 48.7988 41.4144C48.7988 41.1243 48.6835 40.8461 48.4784 40.641C48.2733 40.4359 47.9951 40.3206 47.705 40.3206H10.4213C10.0666 40.3202 9.72666 40.1792 9.47591 39.9284C9.22517 39.6776 9.08414 39.3376 9.08377 38.983C9.08375 38.9371 9.08083 38.8912 9.07502 38.8456L7.65689 27.6425C7.6858 25.458 9.16252 24.1217 10.6488 24.0211C10.7022 24.0294 10.7562 24.0338 10.8103 24.0341H56.6821C56.6902 24.0341 56.6977 24.0353 56.7063 24.0353C58.6728 24.0353 59.8997 25.8936 59.9305 27.6406L59.8357 28.3594C59.7977 28.6469 59.8755 28.9378 60.0519 29.168C60.2284 29.3982 60.489 29.5489 60.7766 29.5869C60.8246 29.5933 60.8729 29.5965 60.9213 29.5966C61.1863 29.5962 61.4422 29.4997 61.6414 29.3248C61.8406 29.15 61.9696 28.9087 62.0042 28.6459L62.1092 27.8517C62.1155 27.8042 62.1186 27.7564 62.1186 27.7084C62.1252 26.8759 61.9601 26.0509 61.6335 25.2851C61.307 24.5192 60.8261 23.8289 60.2208 23.2572H62.776C62.924 23.2572 63.0705 23.2271 63.2066 23.1687C63.3427 23.1104 63.4655 23.025 63.5676 22.9178C63.6697 22.8106 63.749 22.6838 63.8007 22.5451C63.8523 22.4063 63.8753 22.2585 63.8681 22.1106C63.8132 21.3491 63.6641 20.5972 63.4242 19.8723C62.8789 18.2348 61.1738 17.1778 59.0799 17.1778ZM11.8381 42.5081H15.7735V45.8425C15.7735 45.8748 15.7606 45.9059 15.7378 45.9287C15.7149 45.9516 15.6839 45.9645 15.6516 45.9645H11.96C11.9277 45.9645 11.8967 45.9516 11.8738 45.9287C11.851 45.9059 11.8381 45.8748 11.8381 45.8425V42.5081ZM10.6147 21.0613L6.09283 21.067C6.13268 20.9064 6.18064 20.7366 6.23846 20.5631C6.47721 19.847 7.38908 19.3659 8.50768 19.3659C9.30924 19.3659 10.5389 19.3678 11.5692 19.3695L10.6147 21.0613ZM12.6831 21.8467L16.7135 14.7041C16.7247 14.6842 16.7352 14.6641 16.7447 14.6439C17.5103 13.0658 19.1836 10.418 21.7938 10.418H45.9969C47.8288 10.418 49.3271 11.7025 51.0002 14.7025L54.8752 21.8461L12.6831 21.8467ZM56.9441 21.0708L56.015 19.3581C57.043 19.3616 58.2744 19.365 59.0794 19.365C60.198 19.365 61.1106 19.8461 61.3486 20.5622C61.4066 20.7363 61.4547 20.9059 61.4947 21.0683L56.9441 21.0708Z" fill="#DBE7EC"/>
<path d="M55.3018 30.3025H51.3571C50.0989 30.3039 48.8926 30.8044 48.0029 31.6941C47.1132 32.5838 46.6127 33.7901 46.6113 35.0483V67.0211C46.6127 68.2793 47.1132 69.4856 48.0029 70.3753C48.8926 71.265 50.0989 71.7655 51.3571 71.7669H73.0349C74.2931 71.7655 75.4994 71.265 76.3891 70.3753C77.2788 69.4856 77.7793 68.2793 77.7807 67.0211V35.0483C77.7793 33.7901 77.2788 32.5838 76.3891 31.6941C75.4994 30.8044 74.2931 30.3039 73.0349 30.3025H69.0902C68.8889 29.4815 68.4183 28.7517 67.7536 28.2296C67.0888 27.7074 66.2683 27.423 65.423 27.4219H58.969C58.1237 27.423 57.3032 27.7074 56.6385 28.2296C55.9737 28.7517 55.5031 29.4815 55.3018 30.3025ZM69.0488 32.49H73.0349C73.7132 32.4908 74.3634 32.7606 74.843 33.2402C75.3226 33.7198 75.5924 34.37 75.5932 35.0483V67.0211C75.5924 67.6994 75.3227 68.3496 74.8431 68.8292C74.3635 69.3089 73.7132 69.5786 73.0349 69.5794H51.3571C50.6788 69.5786 50.0286 69.3089 49.549 68.8292C49.0693 68.3496 48.7996 67.6994 48.7988 67.0211V35.0483C48.7996 34.37 49.0694 33.7198 49.549 33.2402C50.0286 32.7606 50.6789 32.4908 51.3571 32.49H55.3432C55.5714 33.2754 56.0482 33.9656 56.7019 34.4571C57.3556 34.9487 58.1511 35.215 58.969 35.2161H65.423C66.2409 35.215 67.0364 34.9487 67.6901 34.4571C68.3439 33.9656 68.8206 33.2754 69.0488 32.49ZM67.0109 31.197V31.4408C67.0104 31.8617 66.8429 32.2653 66.5452 32.563C66.2476 32.8607 65.844 33.0281 65.423 33.0286H58.969C58.548 33.0281 58.1445 32.8606 57.8468 32.563C57.5492 32.2653 57.3818 31.8617 57.3813 31.4408V31.197C57.3818 30.7761 57.5492 30.3725 57.8468 30.0749C58.1445 29.7772 58.548 29.6098 58.969 29.6094H65.423C65.844 29.6098 66.2476 29.7772 66.5452 30.0749C66.8429 30.3725 67.0104 30.7761 67.0109 31.197Z" fill="#DBE7EC"/>
</svg>
