<svg width="81" height="80" viewBox="0 0 81 80" fill="none" xmlns="http://www.w3.org/2000/svg">
<path d="M10.0651 43.122C10.0627 42.1086 10.4526 41.1336 11.1531 40.4012L26.5976 28.0801L25.2334 26.3701L9.73338 38.735C9.69885 38.7624 9.66608 38.792 9.63525 38.8236C8.50516 39.9684 7.87319 41.5134 7.87697 43.122V67.399H10.0645L10.0651 43.122Z" fill="#DBE7EC"/>
<path d="M29.7227 64.7384C31.1359 64.4803 32.414 63.7352 33.3348 62.6325C34.2557 61.5299 34.7611 60.1394 34.7631 58.7028V52.4761H32.5756V58.7028C32.5744 59.7491 32.1582 60.7523 31.4183 61.4922C30.6784 62.232 29.6753 62.6482 28.6289 62.6494C28.3388 62.6494 28.0606 62.7646 27.8555 62.9697C27.6504 63.1748 27.5352 63.453 27.5352 63.7431V67.3994H29.7227V64.7384Z" fill="#DBE7EC"/>
<path d="M32.9986 76.2948V68.9609C32.9978 68.2567 32.7177 67.5815 32.2197 67.0836C31.7218 66.5856 31.0466 66.3055 30.3423 66.3047H6.375C5.67076 66.3055 4.99559 66.5856 4.49762 67.0836C3.99964 67.5815 3.71954 68.2567 3.71875 68.9609V76.2948C3.71954 76.9991 3.99964 77.6743 4.49762 78.1722C4.99559 78.6702 5.67076 78.9503 6.375 78.9511H30.3423C31.0466 78.9503 31.7218 78.6702 32.2197 78.1722C32.7177 77.6743 32.9978 76.9991 32.9986 76.2948ZM5.90625 76.2948V68.9609C5.90625 68.8366 5.95564 68.7174 6.04354 68.6295C6.13145 68.5416 6.25068 68.4922 6.375 68.4922H30.3423C30.4667 68.4922 30.5859 68.5416 30.6738 68.6295C30.7617 68.7174 30.8111 68.8366 30.8111 68.9609V76.2948C30.8111 76.4192 30.7617 76.5384 30.6738 76.6263C30.5859 76.7142 30.4667 76.7636 30.3423 76.7636H6.375C6.25068 76.7636 6.13145 76.7142 6.04354 76.6263C5.95564 76.5384 5.90625 76.4192 5.90625 76.2948Z" fill="#DBE7EC"/>
<path d="M10.2949 69.7077C9.6898 69.6953 9.09469 69.8633 8.58548 70.1905C8.07627 70.5177 7.67604 70.9891 7.43581 71.5446C7.19559 72.1001 7.12626 72.7146 7.23667 73.3097C7.34709 73.9048 7.63223 74.4535 8.05575 74.8859C8.47927 75.3183 9.02197 75.6148 9.61464 75.7375C10.2073 75.8602 10.8231 75.8036 11.3835 75.575C11.9439 75.3463 12.4235 74.9559 12.7611 74.4536C13.0988 73.9513 13.2792 73.3598 13.2793 72.7545C13.2866 71.955 12.9766 71.1853 12.4171 70.6141C11.8576 70.0429 11.0944 69.7169 10.2949 69.7077ZM10.2949 73.6139C10.1222 73.627 9.94951 73.5877 9.79943 73.5012C9.64935 73.4146 9.52883 73.2849 9.45359 73.1288C9.37835 72.9728 9.35187 72.7977 9.37762 72.6264C9.40337 72.4551 9.48015 72.2955 9.59794 72.1685C9.71573 72.0414 9.86906 71.9529 10.0379 71.9143C10.2068 71.8757 10.3834 71.8889 10.5447 71.9522C10.706 72.0154 10.8444 72.1258 10.942 72.269C11.0396 72.4121 11.0918 72.5813 11.0918 72.7545C11.0996 72.9741 11.0201 73.1877 10.8708 73.3488C10.7214 73.5099 10.5144 73.6052 10.2949 73.6141V73.6139Z" fill="#DBE7EC"/>
<path d="M65.6293 36.4339C65.0299 36.4344 64.4313 36.4788 63.8384 36.5669V15.603C63.8384 15.4593 63.8101 15.3171 63.7551 15.1844C63.7002 15.0517 63.6196 14.9311 63.5181 14.8295L50.0555 1.36719C49.954 1.26563 49.8334 1.18507 49.7007 1.13011C49.568 1.07515 49.4258 1.04686 49.2821 1.04688H29.2815C28.0992 1.0482 26.9657 1.51845 26.1297 2.35447C25.2938 3.19048 24.8235 4.32397 24.8223 5.50625V39.0158H27.0098V5.50625C27.0104 4.90393 27.2499 4.32645 27.6758 3.90053C28.1017 3.47461 28.6792 3.23504 29.2815 3.23438H48.1877V12.2373C48.1891 13.4196 48.6593 14.5531 49.4953 15.3891C50.3313 16.2251 51.4648 16.6954 52.6471 16.6967H61.6502V37.103C58.8121 38.0842 56.4383 40.0824 54.9874 42.7117C53.5366 45.341 53.1117 48.4146 53.7948 51.3389H29.2815C28.6792 51.3382 28.1017 51.0987 27.6758 50.6728C27.2499 50.2468 27.0104 49.6694 27.0098 49.067V46.1608H24.8223V49.067C24.8235 50.2493 25.2938 51.3828 26.1297 52.2188C26.9657 53.0548 28.0992 53.5251 29.2815 53.5264H54.5315C55.4209 55.5243 56.8331 57.245 58.619 58.5072C60.4049 59.7694 62.4983 60.5262 64.6784 60.6977C66.8586 60.8693 69.0446 60.4493 71.006 59.482C72.9673 58.5147 74.6312 57.0359 75.8222 55.2018C77.0132 53.3677 77.6871 51.2461 77.7728 49.0609C77.8585 46.8757 77.3528 44.7078 76.3092 42.786C75.2655 40.8643 73.7225 39.2598 71.843 38.1418C69.9634 37.0239 67.817 36.4339 65.6301 36.4342L65.6293 36.4339ZM52.6477 14.5092C52.0454 14.5086 51.4679 14.269 51.042 13.8431C50.6161 13.4172 50.3765 12.8397 50.3759 12.2373V4.78109L60.104 14.5092H52.6477ZM65.6293 58.5506C63.6585 58.5506 61.7319 57.9662 60.0932 56.8713C58.4545 55.7763 57.1773 54.22 56.4231 52.3992C55.6689 50.5784 55.4716 48.5748 55.8561 46.6419C56.2406 44.7089 57.1897 42.9334 58.5833 41.5398C59.9769 40.1462 61.7524 39.1972 63.6854 38.8127C65.6184 38.4282 67.6219 38.6256 69.4427 39.3798C71.2635 40.134 72.8198 41.4113 73.9147 43.05C75.0096 44.6887 75.594 46.6153 75.594 48.5861C75.591 51.228 74.5401 53.7607 72.6721 55.6288C70.804 57.4969 68.2712 58.5476 65.6293 58.5506Z" fill="#DBE7EC"/>
<path d="M46.5402 29.4375H38.9473C38.6572 29.4375 38.379 29.5527 38.1739 29.7579C37.9688 29.963 37.8535 30.2412 37.8535 30.5312C37.8535 30.8213 37.9688 31.0995 38.1739 31.3046C38.379 31.5098 38.6572 31.625 38.9473 31.625H46.541C46.8311 31.625 47.1093 31.5098 47.3144 31.3046C47.5195 31.0995 47.6348 30.8213 47.6348 30.5312C47.6348 30.2412 47.5195 29.963 47.3144 29.7579C47.1093 29.5527 46.8311 29.4375 46.541 29.4375H46.5402Z" fill="#DBE7EC"/>
<path d="M53.9816 40.5742C53.9816 40.2841 53.8663 40.0059 53.6612 39.8008C53.4561 39.5957 53.1779 39.4805 52.8878 39.4805H35.5938C35.3037 39.4805 35.0255 39.5957 34.8204 39.8008C34.6152 40.0059 34.5 40.2841 34.5 40.5742C34.5 40.8643 34.6152 41.1425 34.8204 41.3476C35.0255 41.5527 35.3037 41.668 35.5938 41.668H52.8878C53.1779 41.668 53.4561 41.5527 53.6612 41.3476C53.8663 41.1425 53.9816 40.8643 53.9816 40.5742Z" fill="#DBE7EC"/>
<path d="M46.5244 46.125C46.5244 45.8349 46.4091 45.5567 46.204 45.3516C45.9989 45.1465 45.7207 45.0312 45.4306 45.0312H35.5938C35.3037 45.0313 35.0255 45.1465 34.8204 45.3516C34.6152 45.5567 34.5 45.8349 34.5 46.125C34.5 46.4151 34.6152 46.6933 34.8204 46.8984C35.0255 47.1035 35.3037 47.2188 35.5938 47.2188H45.4309C45.721 47.2187 45.9991 47.1034 46.2041 46.8983C46.4092 46.6932 46.5244 46.415 46.5244 46.125Z" fill="#DBE7EC"/>
<path d="M45.2793 25.5625C45.5694 25.5625 45.8476 25.4473 46.0527 25.2421C46.2578 25.037 46.373 24.7588 46.373 24.4687C46.373 24.0637 46.534 23.6752 46.8204 23.3888C47.1068 23.1023 47.4953 22.9414 47.9004 22.9414C48.3055 22.9414 48.694 23.1023 48.9804 23.3888C49.2668 23.6752 49.4277 24.0637 49.4277 24.4687C49.4277 24.7588 49.543 25.037 49.7481 25.2421C49.9532 25.4473 50.2314 25.5625 50.5215 25.5625C50.8116 25.5625 51.0898 25.4473 51.2949 25.2421C51.5 25.037 51.6152 24.7588 51.6152 24.4687C51.6152 23.4835 51.2239 22.5386 50.5272 21.842C49.8305 21.1453 48.8856 20.7539 47.9004 20.7539C46.9152 20.7539 45.9703 21.1453 45.2736 21.842C44.5769 22.5386 44.1855 23.4835 44.1855 24.4687C44.1855 24.7588 44.3008 25.037 44.5059 25.2421C44.711 25.4473 44.9892 25.5625 45.2793 25.5625Z" fill="#DBE7EC"/>
<path d="M30.9453 29.8492C30.9453 30.3934 31.1067 30.9254 31.409 31.3779C31.7114 31.8304 32.1411 32.1831 32.6439 32.3913C33.1467 32.5996 33.6999 32.6541 34.2337 32.5479C34.7674 32.4417 35.2577 32.1797 35.6425 31.7949C36.0273 31.4101 36.2894 30.9198 36.3956 30.386C36.5017 29.8523 36.4472 29.299 36.239 28.7962C36.0307 28.2935 35.6781 27.8637 35.2256 27.5614C34.7731 27.259 34.2411 27.0977 33.6969 27.0977C32.9674 27.0985 32.268 27.3886 31.7521 27.9045C31.2363 28.4203 30.9461 29.1197 30.9453 29.8492ZM34.2609 29.8492C34.2609 29.9608 34.2279 30.0698 34.1659 30.1626C34.1039 30.2554 34.0158 30.3277 33.9127 30.3703C33.8097 30.413 33.6962 30.4242 33.5868 30.4024C33.4774 30.3807 33.3769 30.327 33.298 30.2481C33.2191 30.1692 33.1654 30.0687 33.1437 29.9593C33.1219 29.8498 33.1331 29.7364 33.1757 29.6334C33.2184 29.5303 33.2907 29.4422 33.3835 29.3802C33.4763 29.3182 33.5853 29.2852 33.6969 29.2852C33.8464 29.2853 33.9898 29.3448 34.0955 29.4505C34.2013 29.5563 34.2608 29.6997 34.2609 29.8492Z" fill="#DBE7EC"/>
<path d="M51.7887 32.6008C52.3329 32.6008 52.8649 32.4394 53.3174 32.1371C53.7698 31.8347 54.1225 31.405 54.3308 30.9022C54.539 30.3994 54.5935 29.8462 54.4874 29.3124C54.3812 28.7787 54.1191 28.2884 53.7343 27.9036C53.3495 27.5188 52.8592 27.2567 52.3255 27.1505C51.7917 27.0444 51.2385 27.0988 50.7357 27.3071C50.2329 27.5154 49.8032 27.868 49.5008 28.3205C49.1985 28.773 49.0371 29.305 49.0371 29.8492C49.038 30.5787 49.3282 31.2781 49.844 31.7939C50.3598 32.3097 51.0592 32.5999 51.7887 32.6008ZM51.7887 29.2852C51.9002 29.2852 52.0093 29.3182 52.102 29.3802C52.1948 29.4422 52.2671 29.5303 52.3098 29.6334C52.3525 29.7364 52.3637 29.8498 52.3419 29.9593C52.3201 30.0687 52.2664 30.1692 52.1875 30.2481C52.1086 30.327 52.0081 30.3807 51.8987 30.4024C51.7893 30.4242 51.6759 30.413 51.5728 30.3703C51.4697 30.3276 51.3817 30.2554 51.3197 30.1626C51.2577 30.0698 51.2246 29.9608 51.2246 29.8492C51.2248 29.6997 51.2843 29.5563 51.39 29.4505C51.4957 29.3448 51.6391 29.2853 51.7887 29.2852Z" fill="#DBE7EC"/>
<path d="M65.6291 44.2249C66.0542 44.2254 66.4617 44.3944 66.7623 44.695C67.0629 44.9956 67.232 45.4031 67.2325 45.8281C67.2325 46.1182 67.3478 46.3964 67.5529 46.6015C67.758 46.8067 68.0362 46.9219 68.3263 46.9219C68.6163 46.9219 68.8945 46.8067 69.0997 46.6015C69.3048 46.3964 69.42 46.1182 69.42 45.8281C69.419 45.0139 69.1563 44.2216 68.6707 43.5681C68.185 42.9145 67.5022 42.4344 66.7228 42.1986V41.6489C66.7228 41.3588 66.6076 41.0806 66.4025 40.8755C66.1974 40.6704 65.9192 40.5552 65.6291 40.5552C65.339 40.5552 65.0608 40.6704 64.8557 40.8755C64.6506 41.0806 64.5353 41.3588 64.5353 41.6489V42.1986C63.6643 42.461 62.9167 43.0278 62.4289 43.7957C61.9412 44.5635 61.7458 45.4811 61.8784 46.3811C62.0111 47.281 62.4629 48.1033 63.1515 48.6977C63.84 49.2922 64.7194 49.6192 65.6291 49.6191C66.0543 49.6167 66.463 49.7833 66.7653 50.0822C67.0677 50.3812 67.2389 50.788 67.2413 51.2131C67.2437 51.6383 67.0771 52.047 66.7781 52.3494C66.4792 52.6517 66.0724 52.8229 65.6472 52.8253C65.6411 52.8253 65.6352 52.8244 65.6291 52.8244C65.623 52.8244 65.6169 52.8252 65.6108 52.8253C65.1889 52.8202 64.7861 52.6491 64.4894 52.3492C64.1927 52.0493 64.026 51.6446 64.0255 51.2227C64.0255 50.9326 63.9103 50.6544 63.7051 50.4493C63.5 50.2442 63.2218 50.1289 62.9317 50.1289C62.6417 50.1289 62.3635 50.2442 62.1583 50.4493C61.9532 50.6544 61.838 50.9326 61.838 51.2227C61.839 52.0369 62.1017 52.8293 62.5874 53.4828C63.0731 54.1363 63.756 54.6164 64.5353 54.8522V55.5241C64.5353 55.8142 64.6506 56.0924 64.8557 56.2975C65.0608 56.5026 65.339 56.6178 65.6291 56.6178C65.9192 56.6178 66.1974 56.5026 66.4025 56.2975C66.6076 56.0924 66.7228 55.8142 66.7228 55.5241V54.8522C67.5938 54.5897 68.3413 54.0229 68.829 53.255C69.3167 52.4872 69.512 51.5696 69.3794 50.6697C69.2467 49.7698 68.7949 48.9476 68.1065 48.3532C67.418 47.7587 66.5387 47.4316 65.6291 47.4316C65.4172 47.4337 65.207 47.3937 65.0106 47.3141C64.8142 47.2344 64.6355 47.1167 64.485 46.9676C64.3344 46.8185 64.2148 46.641 64.1333 46.4454C64.0517 46.2498 64.0097 46.04 64.0097 45.8281C64.0097 45.6161 64.0517 45.4063 64.1333 45.2107C64.2148 45.0152 64.3344 44.8377 64.485 44.6886C64.6355 44.5395 64.8142 44.4217 65.0106 44.342C65.207 44.2624 65.4172 44.2225 65.6291 44.2245V44.2249Z" fill="#DBE7EC"/>
<path d="M15.1468 47.3965C15.3269 47.6239 15.5899 47.7704 15.8781 47.8039C16.1662 47.8374 16.4558 47.755 16.6832 47.5749L28.0249 38.5946L28.2271 38.797C28.7302 39.3012 29.0128 39.9843 29.0128 40.6966C29.0128 41.4088 28.7302 42.092 28.2271 42.5962L22.8812 47.9423C22.6916 48.132 22.5782 48.3847 22.5626 48.6524L22.4951 49.8182C22.4938 49.839 22.4932 49.8601 22.4932 49.8815C22.4986 50.7852 22.7045 51.6764 23.096 52.4909C23.5115 53.3829 23.6911 54.3666 23.6177 55.3479C23.5443 56.3292 23.2204 57.2752 22.677 58.0956C22.5572 58.2752 22.4932 58.4863 22.4932 58.7023V61.2224C22.4932 61.5125 22.6084 61.7907 22.8136 61.9958C23.0187 62.2009 23.2969 62.3162 23.587 62.3162C23.877 62.3162 24.1552 62.2009 24.3604 61.9958C24.5655 61.7907 24.6807 61.5125 24.6807 61.2224V59.0193C25.3522 57.9033 25.7394 56.6396 25.8083 55.339C25.8772 54.0384 25.6257 52.7407 25.0759 51.5601C24.8262 51.0454 24.6915 50.4825 24.6809 49.9106L24.7224 49.1941L29.7742 44.1424C30.6868 43.2276 31.1993 41.9882 31.1993 40.696C31.1993 39.4037 30.6868 38.1643 29.7742 37.2495L28.8835 36.3588C28.6938 36.169 28.441 36.0554 28.173 36.0399C27.9051 36.0244 27.6408 36.1079 27.4304 36.2746L15.3252 45.8593C15.2125 45.9485 15.1185 46.059 15.0485 46.1845C14.9786 46.3101 14.934 46.4482 14.9175 46.5909C14.9009 46.7337 14.9126 46.8783 14.952 47.0165C14.9913 47.1548 15.0575 47.2839 15.1468 47.3965Z" fill="#DBE7EC"/>
<path d="M51.5023 38.1925H53.4214C53.8789 38.192 54.3177 38.01 54.6412 37.6864C54.9648 37.3628 55.1468 36.9241 55.1473 36.4665V35.0511C55.5506 34.8715 55.8954 34.5824 56.1426 34.2167C56.3898 33.8509 56.5294 33.4232 56.5456 32.982L57.3126 27.1789C57.3189 27.1314 57.322 27.0835 57.322 27.0356C57.322 25.322 56.1881 23.8868 54.6814 23.5425L52.4715 19.4684C51.6699 18.0309 50.4843 16.3818 48.4145 16.3818H37.1768C35.5079 16.3818 34.0507 17.4836 33.0706 19.485L30.7904 23.5256C29.272 23.8578 28.1621 25.2804 28.1621 27.0353C28.1621 27.0812 28.1651 27.1271 28.1709 27.1726L28.9052 32.9781C28.9209 33.4261 29.0638 33.8604 29.3173 34.2302C29.5707 34.6 29.9242 34.89 30.3363 35.0664V36.4662C30.3368 36.9238 30.5188 37.3625 30.8424 37.6861C31.166 38.0097 31.6047 38.1917 32.0623 38.1921H33.982C34.4396 38.1917 34.8783 38.0097 35.2018 37.6861C35.5254 37.3625 35.7074 36.9238 35.7079 36.4662V35.2568H49.7759V36.4662C49.7763 36.9239 49.9584 37.3628 50.282 37.6864C50.6057 38.01 51.0446 38.192 51.5023 38.1925ZM52.9604 36.005H51.9639V35.2571H52.9604V36.005ZM34.9916 20.5315C35.0029 20.5117 35.0134 20.4915 35.0229 20.4712C35.3666 19.7611 36.1049 18.5696 37.1762 18.5696H48.4138C49.1504 18.5696 49.7923 19.1571 50.5545 20.5228L52.1492 23.4623H33.3379L34.9916 20.5315ZM33.5206 36.005H32.524V35.2571H33.5206V36.005ZM31.2621 33.0696C31.2172 33.0686 31.1745 33.0503 31.1427 33.0185C31.1109 32.9868 31.0926 32.9441 31.0915 32.8992C31.0915 32.8533 31.0887 32.8074 31.0829 32.7618L30.3504 26.9756C30.3741 26.3506 30.7649 25.7001 31.3891 25.6451C31.4143 25.6468 31.439 25.6501 31.4645 25.6501H53.9707C53.9748 25.6501 53.9787 25.6501 53.9828 25.6501C54.6721 25.6501 55.1078 26.3248 55.1337 26.9728L54.3692 32.7553C54.3629 32.8028 54.3597 32.8506 54.3596 32.8986C54.3586 32.9434 54.3403 32.9862 54.3085 33.0179C54.2768 33.0496 54.234 33.068 54.1892 33.069L31.2621 33.0696Z" fill="#DBE7EC"/>
</svg>
