<svg width="22" height="22" viewBox="0 0 22 22" fill="none" xmlns="http://www.w3.org/2000/svg">
<path d="M18.1241 14.103C18.7729 12.5613 18.9223 10.855 18.5511 9.22402C18.18 7.59303 17.307 6.11938 16.055 5.01024C14.8029 3.9011 13.2347 3.21225 11.5709 3.04055C9.90706 2.86884 8.23124 3.22292 6.77906 4.05299L5.78706 2.31599C7.30469 1.4486 9.02325 0.994353 10.7713 0.998564C12.5193 1.00278 14.2356 1.4653 15.7491 2.33999C20.2391 4.93199 21.9591 10.482 19.8661 15.11L21.2081 15.884L17.0431 18.098L16.8781 13.384L18.1241 14.103ZM3.37406 7.89699C2.72521 9.43868 2.57585 11.145 2.94698 12.776C3.31811 14.4069 4.19108 15.8806 5.44314 16.9897C6.6952 18.0989 8.26338 18.7877 9.92722 18.9594C11.5911 19.1311 13.2669 18.7771 14.7191 17.947L15.7111 19.684C14.1934 20.5514 12.4749 21.0056 10.7269 21.0014C8.97885 20.9972 7.2625 20.5347 5.74906 19.66C1.25906 17.068 -0.460937 11.518 1.63206 6.88999L0.289062 6.11699L4.45406 3.90299L4.61906 8.61699L3.37306 7.89799L3.37406 7.89699ZM12.1641 13.828L9.33306 11L6.50506 13.828L5.09106 12.414L9.33406 8.17199L12.1631 11L14.9921 8.17199L16.4061 9.58599L12.1631 13.828H12.1641Z" fill="#29C4A8"/>
</svg>
