<svg width="173" height="36" viewBox="0 0 173 36" fill="none" xmlns="http://www.w3.org/2000/svg">
<path d="M101.842 29.0733C105.654 29.0733 107.912 27.863 109.945 25.6442L107.178 22.6186C105.625 24.0594 104.242 24.9815 101.983 24.9815C98.5956 24.9815 96.2524 22.0999 96.2524 18.6421C96.2524 15.1266 98.6521 12.3027 101.983 12.3027C104.242 12.3027 105.541 13.1384 107.065 14.5503L109.662 11.4959C107.827 9.6517 105.738 8.21094 102.012 8.21094C95.9418 8.21094 91.707 12.9078 91.707 18.6421C91.707 24.4916 96.0265 29.0733 101.842 29.0733Z" fill="white"/>
<path d="M112.861 28.7275H117.208V22.561L119.495 20.1405L125.621 28.7275H130.844L122.431 17.1149L130.477 8.55672H125.226L117.208 17.3742V8.55672H112.861V28.7275Z" fill="white"/>
<path d="M142.517 29.0733C148.615 29.0733 153.048 24.3764 153.048 18.6421C153.048 12.8502 148.672 8.21094 142.574 8.21094C136.476 8.21094 132.043 12.9078 132.043 18.6421C132.043 24.434 136.419 29.0733 142.517 29.0733ZM142.574 24.9815C139.073 24.9815 136.589 22.0999 136.589 18.6421C136.589 15.1266 139.016 12.3027 142.517 12.3027C146.018 12.3027 148.502 15.1843 148.502 18.6421C148.502 22.1576 146.074 24.9815 142.574 24.9815Z" fill="white"/>
<path d="M156.34 28.7275H160.687V12.5621H168.479V28.7275H172.827V8.55672H156.34V28.7275Z" fill="white"/>
<path d="M0 29.1767H4.43239L6.23923 24.6527H14.5958L16.4027 29.1767H20.948L12.4785 8.86189H8.46954L0 29.1767ZM7.79198 20.7338L10.4175 14.1927L13.0431 20.7338H7.79198Z" fill="white"/>
<path d="M23.4335 29.1767H32.8347C37.2953 29.1767 40.2314 27.3325 40.2314 23.6442C40.2314 20.8779 38.8198 19.5236 36.5331 18.6303C37.9446 17.8235 39.1304 16.5556 39.1304 14.2792C39.1304 12.8384 38.6787 11.7146 37.7753 10.7925C36.646 9.6399 34.8674 9.00597 32.6088 9.00597H23.4335V29.1767ZM27.6683 17.1607V12.896H31.9595C33.7946 12.896 34.8109 13.6452 34.8109 14.9707C34.8109 16.5268 33.5969 17.1607 31.6772 17.1607H27.6683ZM27.6683 25.2866V20.8491H32.6935C34.9238 20.8491 35.912 21.6847 35.912 23.039C35.912 24.5951 34.7545 25.2866 32.8347 25.2866H27.6683Z" fill="white"/>
<path d="M47.845 29.1767H52.1927V13.0977H58.206V9.00597H41.8316V13.0977H47.845V29.1767Z" fill="white"/>
<path d="M0 28.9584H4.43239L6.23923 24.4344H14.5958L16.4027 28.9584H20.948L12.4785 8.64355H8.46954L0 28.9584ZM7.79198 20.5155L10.4175 13.9744L13.0431 20.5155H7.79198Z" fill="white"/>
<path d="M23.4335 28.9584H32.8347C37.2953 28.9584 40.2314 27.1142 40.2314 23.4258C40.2314 20.6596 38.8198 19.3052 36.5331 18.412C37.9446 17.6051 39.1304 16.3373 39.1304 14.0608C39.1304 12.6201 38.6787 11.4963 37.7753 10.5742C36.646 9.42157 34.8674 8.78763 32.6088 8.78763H23.4335V28.9584ZM27.6683 16.9424V12.6777H31.9595C33.7946 12.6777 34.8109 13.4269 34.8109 14.7524C34.8109 16.3084 33.5969 16.9424 31.6772 16.9424H27.6683ZM27.6683 25.0683V20.6307H32.6935C34.9238 20.6307 35.912 21.4664 35.912 22.8207C35.912 24.3767 34.7545 25.0683 32.8347 25.0683H27.6683Z" fill="white"/>
<path d="M47.845 28.9584H52.1927V12.8794H58.206V8.78763H41.8316V12.8794H47.845V28.9584Z" fill="white"/>
<path fill-rule="evenodd" clip-rule="evenodd" d="M85.6694 29.753C85.7442 29.753 85.8191 29.7203 85.8726 29.6657C86.974 28.4869 87.8295 27.1444 88.4498 25.6054C89.0807 24.0118 89.4015 22.32 89.4015 20.5299V20.4535C89.4015 18.6526 89.0807 16.9717 88.4498 15.3781C87.8189 13.7845 86.9313 12.3983 85.8084 11.2086C84.6856 10.0189 83.3274 9.08018 81.7447 8.38163C80.547 7.85771 79.2531 7.53027 77.8522 7.4102C77.6276 7.38837 77.4672 7.60667 77.5421 7.82497L78.7612 11.6561C78.7932 11.7543 78.8681 11.8307 78.9643 11.8635C79.2531 11.9617 79.5418 12.0709 79.8198 12.2018C80.8572 12.6821 81.734 13.337 82.4719 14.1447C83.2098 14.9633 83.7873 15.9238 84.1936 17.0153C84.6107 18.1177 84.8139 19.2965 84.8139 20.5299V20.6063C84.8139 21.8397 84.6107 23.0076 84.1936 24.0991C83.9049 24.885 83.5199 25.6054 83.0601 26.2602C82.8997 26.4895 83.0494 26.7951 83.3274 26.7951H84.6214C85.124 26.7951 85.5304 27.2098 85.5304 27.7228V29.6002C85.5197 29.6875 85.5838 29.753 85.6694 29.753Z" fill="white"/>
<path d="M78.7496 18.5888L74.0657 5.21807L73.4776 3.47168L67.1682 5.69832L67.211 5.8293L68.3124 8.90731C67.2537 9.51854 66.302 10.2498 65.4785 11.1121C64.3129 12.3128 63.4039 13.7099 62.773 15.3034C62.0993 16.9734 61.8105 18.6543 61.8105 20.4553C61.8105 22.2562 62.1314 23.9481 62.773 25.5307C63.4146 27.1243 64.3022 28.5105 65.4465 29.7111C65.5427 29.8094 65.7031 29.7439 65.7031 29.602L65.671 27.6591C65.6603 27.1461 66.0667 26.7314 66.5693 26.7314H67.8633C68.1199 26.7314 68.2696 26.4367 68.1306 26.2184C67.6708 25.5198 67.243 24.6248 66.965 23.8826C66.5265 22.7147 66.3447 21.5359 66.3447 20.2916C66.3447 19.0582 66.6549 17.8794 67.0719 16.7988C67.4783 15.7073 68.0558 14.7577 68.7829 13.9391C69.061 13.6335 69.3497 13.3606 69.6705 13.0986L72.4082 20.7827L74.3438 20.1169L74.6753 21.1538L77.2632 20.2916L76.9317 19.2546L78.7496 18.5888Z" fill="white"/>
<path d="M84.9101 27.611C84.8673 27.496 84.7069 27.4002 84.5679 27.4002C83.9904 27.4002 83.413 27.4002 82.8355 27.4002C82.75 27.4002 82.6644 27.4386 82.5895 27.4865C82.5468 27.5248 82.5147 27.5631 82.4933 27.611C82.4505 27.7259 82.4184 27.8313 82.3971 27.9271L82.226 27.496L81.2421 25.0629C81.0496 24.5935 80.547 24.2773 79.9909 24.2773H71.1471C70.591 24.2773 70.0777 24.5935 69.8959 25.0629L69.2008 26.7776L68.741 27.9271C68.7196 27.8313 68.6875 27.7259 68.6447 27.611C68.602 27.496 68.4416 27.4002 68.3025 27.4002C67.7251 27.4002 67.1476 27.4002 66.5701 27.4002C66.4418 27.4002 66.2814 27.496 66.2279 27.611C66.0568 28.0708 66.0568 28.3294 66.2279 28.7893C66.2707 28.9042 66.4311 29 66.5701 29C67.1476 29 67.7251 29 68.3025 29L68.2812 29.0671C67.9283 29.1724 67.6716 29.4694 67.6716 29.8238V32.2187V32.4199V33.761V35.0734C67.6716 35.2841 67.8641 35.4565 68.0994 35.4565H70.2488C70.4841 35.4565 70.6766 35.2841 70.6766 35.0734V33.761H80.4722V35.0734C80.4722 35.2841 80.6647 35.4565 80.8999 35.4565H82.2687H83.0494C83.2846 35.4565 83.4771 35.2841 83.4771 35.0734V32.4199V32.2187V30.1112V29.8142C83.4771 29.4598 83.2205 29.1628 82.8676 29.0575L82.8462 28.9904C83.4237 28.9904 84.0011 28.9904 84.5786 28.9904C84.7069 28.9904 84.8673 28.8946 84.9208 28.7797C85.0812 28.3294 85.0812 28.0708 84.9101 27.611ZM70.5803 27.496L71.3075 25.6855H79.8198L80.547 27.496L81.1673 29.0287H69.9601L70.5803 27.496ZM71.5428 31.3757H69.7462C69.3612 31.3757 69.0511 31.0979 69.0511 30.753C69.0511 30.4082 69.3612 30.1304 69.7462 30.1304H71.5428C71.9278 30.1304 72.2379 30.4082 72.2379 30.753C72.2486 31.0979 71.9278 31.3757 71.5428 31.3757ZM81.3811 31.3757H79.5846C79.1996 31.3757 78.8895 31.0979 78.8895 30.753C78.8895 30.4082 79.1996 30.1304 79.5846 30.1304H81.3811C81.7661 30.1304 82.0762 30.4082 82.0762 30.753C82.0762 31.0979 81.7661 31.3757 81.3811 31.3757Z" fill="white"/>
<rect width="4.12782" height="2.794" transform="matrix(0.943432 -0.331565 0.319655 0.947534 67.1973 1.91504)" fill="white"/>
</svg>
